<svg width="199" height="37" viewBox="0 0 199 37" fill="none" xmlns="http://www.w3.org/2000/svg">
<path d="M21.264 24.144C21.264 25.936 20.912 27.568 20.208 29.04C19.536 30.48 18.608 31.728 17.424 32.784C16.272 33.84 14.896 34.656 13.296 35.232C11.728 35.808 10.032 36.096 8.208 36.096C6.928 36.096 5.648 35.76 4.368 35.088C3.088 34.384 1.856 33.28 0.672 31.776L4.224 24.816C4.448 25.232 4.784 25.664 5.232 26.112C5.68 26.528 6.176 26.896 6.72 27.216C7.296 27.536 7.856 27.808 8.4 28.032C8.976 28.224 9.488 28.32 9.936 28.32C10.32 28.32 10.72 28.256 11.136 28.128C11.552 28 11.936 27.808 12.288 27.552C12.64 27.296 12.912 27.008 13.104 26.688C13.328 26.336 13.44 25.936 13.44 25.488C13.44 24.72 13.184 24.016 12.672 23.376C12.192 22.704 11.584 22.08 10.848 21.504C10.112 20.896 9.312 20.288 8.448 19.68C7.584 19.072 6.784 18.432 6.048 17.76C5.344 17.088 4.736 16.336 4.224 15.504C3.712 14.672 3.456 13.744 3.456 12.72C3.456 11.056 3.952 9.504 4.944 8.064C5.936 6.624 7.168 5.392 8.64 4.368C10.144 3.312 11.776 2.48 13.536 1.872C15.296 1.264 16.96 0.959999 18.528 0.959999C19.392 0.959999 20.208 1.072 20.976 1.296C21.744 1.488 22.4 1.824 22.944 2.304C23.52 2.752 23.968 3.328 24.288 4.032C24.64 4.736 24.816 5.616 24.816 6.672C24.816 7.12 24.768 7.568 24.672 8.016C24.608 8.464 24.544 8.944 24.48 9.456L17.52 11.472C17.584 11.216 17.632 10.96 17.664 10.704C17.728 10.448 17.76 10.192 17.76 9.936C17.76 8.976 17.584 8.288 17.232 7.872C16.912 7.424 16.48 7.2 15.936 7.2C15.68 7.2 15.36 7.296 14.976 7.488C14.624 7.68 14.256 7.936 13.872 8.256C13.52 8.544 13.216 8.896 12.96 9.312C12.704 9.728 12.576 10.176 12.576 10.656C12.576 11.424 12.784 12.064 13.2 12.576C13.648 13.088 14.192 13.568 14.832 14.016C15.472 14.464 16.16 14.928 16.896 15.408C17.664 15.856 18.368 16.448 19.008 17.184C19.648 17.92 20.176 18.848 20.592 19.968C21.04 21.056 21.264 22.448 21.264 24.144ZM24.465 36.048C25.201 32.528 25.905 29.056 26.577 25.632C26.865 24.192 27.153 22.688 27.441 21.12C27.729 19.552 28.001 18.016 28.257 16.512C28.545 14.976 28.785 13.504 28.977 12.096C29.201 10.656 29.393 9.344 29.553 8.16C28.817 8.064 28.065 8.032 27.297 8.064C26.561 8.096 25.825 8 25.089 7.776C25.121 7.264 25.137 6.672 25.137 6C25.137 5.328 25.153 4.656 25.185 3.984C25.217 3.248 25.249 2.464 25.281 1.632C26.113 1.696 26.945 1.744 27.777 1.776C28.609 1.808 29.441 1.824 30.273 1.824C31.905 1.824 33.473 1.792 34.977 1.728C36.513 1.632 37.921 1.536 39.201 1.44C40.513 1.312 41.793 1.168 43.041 1.008L42.513 3.6C42.353 4.336 42.193 5.088 42.033 5.856C41.905 6.624 41.777 7.28 41.649 7.824C40.945 8.016 40.225 8.16 39.489 8.256C38.785 8.32 38.081 8.416 37.377 8.544C37.153 9.632 36.913 10.848 36.657 12.192C36.401 13.504 36.145 14.88 35.889 16.32C35.665 17.728 35.441 19.168 35.217 20.64C34.993 22.112 34.769 23.52 34.545 24.864C34.033 28.032 33.553 31.312 33.105 34.704L24.465 36.048ZM54.7196 35.04C53.9196 35.168 53.0396 35.312 52.0796 35.472C51.1196 35.632 50.2556 35.776 49.4876 35.904C49.6156 34.848 49.7436 33.808 49.8716 32.784C49.9676 31.888 50.0476 30.992 50.1116 30.096C50.2076 29.2 50.2876 28.432 50.3516 27.792H46.1756L44.2556 34.704C43.5516 34.8 42.7196 34.912 41.7596 35.04C40.7996 35.136 39.9036 35.232 39.0716 35.328C38.0476 35.456 37.0396 35.584 36.0476 35.712C37.3276 31.456 38.5916 27.264 39.8396 23.136C40.3516 21.408 40.8796 19.6 41.4236 17.712C41.9996 15.824 42.5596 13.952 43.1036 12.096C43.6796 10.208 44.2236 8.4 44.7356 6.672C45.2476 4.944 45.6956 3.36 46.0796 1.92C48.2556 1.76 50.4636 1.568 52.7036 1.344C54.9756 1.12 57.1836 0.815998 59.3276 0.431997C59.2316 1.456 59.1196 2.736 58.9916 4.272C58.8956 5.776 58.7996 7.424 58.7036 9.216C58.6076 11.008 58.5116 12.88 58.4156 14.832C58.3196 16.784 58.2236 18.704 58.1276 20.592C57.9676 25.008 57.7916 29.696 57.5996 34.656C56.6396 34.816 55.6796 34.944 54.7196 35.04ZM47.3276 22.992C47.4556 22.992 47.6796 22.992 47.9996 22.992C48.3516 22.96 48.7036 22.944 49.0556 22.944C49.4396 22.912 49.7916 22.896 50.1116 22.896C50.4316 22.864 50.6556 22.832 50.7836 22.8C50.7836 22.608 50.7996 22.288 50.8316 21.84C50.8956 21.36 50.9436 20.832 50.9756 20.256C51.0396 19.648 51.1036 18.992 51.1676 18.288C51.2316 17.584 51.2956 16.896 51.3596 16.224C51.4876 14.592 51.6476 12.832 51.8396 10.944L52.1276 6.768L51.4076 6.816L50.3036 10.944L47.3276 22.992ZM61.6613 36.048C62.3973 32.528 63.1013 29.056 63.7733 25.632C64.0613 24.192 64.3493 22.688 64.6373 21.12C64.9253 19.552 65.1973 18.016 65.4533 16.512C65.7413 14.976 65.9813 13.504 66.1733 12.096C66.3973 10.656 66.5893 9.344 66.7493 8.16C66.0133 8.064 65.2613 8.032 64.4933 8.064C63.7573 8.096 63.0213 8 62.2853 7.776C62.3173 7.264 62.3333 6.672 62.3333 6C62.3333 5.328 62.3493 4.656 62.3813 3.984C62.4133 3.248 62.4453 2.464 62.4773 1.632C63.3093 1.696 64.1413 1.744 64.9733 1.776C65.8053 1.808 66.6373 1.824 67.4693 1.824C69.1013 1.824 70.6693 1.792 72.1733 1.728C73.7093 1.632 75.1173 1.536 76.3973 1.44C77.7093 1.312 78.9893 1.168 80.2373 1.008L79.7093 3.6C79.5493 4.336 79.3893 5.088 79.2293 5.856C79.1013 6.624 78.9733 7.28 78.8453 7.824C78.1413 8.016 77.4213 8.16 76.6853 8.256C75.9813 8.32 75.2773 8.416 74.5733 8.544C74.3493 9.632 74.1093 10.848 73.8533 12.192C73.5973 13.504 73.3413 14.88 73.0853 16.32C72.8613 17.728 72.6373 19.168 72.4133 20.64C72.1893 22.112 71.9653 23.52 71.7413 24.864C71.2293 28.032 70.7493 31.312 70.3013 34.704L61.6613 36.048ZM95.5159 24.144C95.5159 25.936 95.1639 27.568 94.4599 29.04C93.7879 30.48 92.8599 31.728 91.6759 32.784C90.5239 33.84 89.1479 34.656 87.5479 35.232C85.9799 35.808 84.2839 36.096 82.4599 36.096C81.1799 36.096 79.8999 35.76 78.6199 35.088C77.3399 34.384 76.1079 33.28 74.9239 31.776L78.4759 24.816C78.6999 25.232 79.0359 25.664 79.4839 26.112C79.9319 26.528 80.4279 26.896 80.9719 27.216C81.5479 27.536 82.1079 27.808 82.6519 28.032C83.2279 28.224 83.7399 28.32 84.1879 28.32C84.5719 28.32 84.9719 28.256 85.3879 28.128C85.8039 28 86.1879 27.808 86.5399 27.552C86.8919 27.296 87.1639 27.008 87.3559 26.688C87.5799 26.336 87.6919 25.936 87.6919 25.488C87.6919 24.72 87.4359 24.016 86.9239 23.376C86.4439 22.704 85.8359 22.08 85.0999 21.504C84.3639 20.896 83.5639 20.288 82.6999 19.68C81.8359 19.072 81.0359 18.432 80.2999 17.76C79.5959 17.088 78.9879 16.336 78.4759 15.504C77.9639 14.672 77.7079 13.744 77.7079 12.72C77.7079 11.056 78.2039 9.504 79.1959 8.064C80.1879 6.624 81.4199 5.392 82.8919 4.368C84.3959 3.312 86.0279 2.48 87.7879 1.872C89.5479 1.264 91.2119 0.959999 92.7799 0.959999C93.6439 0.959999 94.4599 1.072 95.2279 1.296C95.9959 1.488 96.6519 1.824 97.1959 2.304C97.7719 2.752 98.2199 3.328 98.5399 4.032C98.8919 4.736 99.0679 5.616 99.0679 6.672C99.0679 7.12 99.0199 7.568 98.9239 8.016C98.8599 8.464 98.7959 8.944 98.7319 9.456L91.7719 11.472C91.8359 11.216 91.8839 10.96 91.9159 10.704C91.9799 10.448 92.0119 10.192 92.0119 9.936C92.0119 8.976 91.8359 8.288 91.4839 7.872C91.1639 7.424 90.7319 7.2 90.1879 7.2C89.9319 7.2 89.6119 7.296 89.2279 7.488C88.8759 7.68 88.5079 7.936 88.1239 8.256C87.7719 8.544 87.4679 8.896 87.2119 9.312C86.9559 9.728 86.8279 10.176 86.8279 10.656C86.8279 11.424 87.0359 12.064 87.4519 12.576C87.8999 13.088 88.4439 13.568 89.0839 14.016C89.7239 14.464 90.4119 14.928 91.1479 15.408C91.9159 15.856 92.6199 16.448 93.2599 17.184C93.8999 17.92 94.4279 18.848 94.8439 19.968C95.2919 21.056 95.5159 22.448 95.5159 24.144ZM94.2529 36.048C95.2129 31.728 96.1249 27.504 96.9889 23.376C97.3409 21.648 97.7089 19.824 98.0929 17.904C98.4769 15.984 98.8449 14.096 99.1969 12.24C99.5489 10.384 99.8849 8.592 100.205 6.864C100.525 5.136 100.797 3.552 101.021 2.112C101.949 1.824 102.861 1.584 103.757 1.392C104.653 1.168 105.565 0.975998 106.493 0.815998C107.453 0.655998 108.349 0.575998 109.181 0.575998C110.621 0.575998 111.821 0.815998 112.781 1.296C113.773 1.776 114.573 2.432 115.181 3.264C115.789 4.064 116.221 5.008 116.477 6.096C116.733 7.184 116.861 8.352 116.861 9.6C116.861 11.392 116.525 13.12 115.853 14.784C115.213 16.448 114.333 17.936 113.213 19.248C112.125 20.528 110.861 21.552 109.421 22.32C108.013 23.088 106.541 23.472 105.005 23.472H104.477C104.221 24.56 103.981 25.744 103.757 27.024C103.533 28.304 103.341 29.488 103.181 30.576C102.957 31.856 102.749 33.136 102.557 34.416L94.2529 36.048ZM107.645 6.384C107.293 8.496 106.941 10.496 106.589 12.384C106.237 14.272 105.853 16.288 105.437 18.432C105.949 18.304 106.477 18.016 107.021 17.568C107.597 17.088 108.125 16.48 108.605 15.744C109.085 14.976 109.469 14.096 109.757 13.104C110.045 12.112 110.189 11.072 110.189 9.984C110.189 8.8 109.917 7.904 109.373 7.296C108.861 6.688 108.285 6.384 107.645 6.384ZM129.768 35.04C128.968 35.168 128.088 35.312 127.128 35.472C126.168 35.632 125.304 35.776 124.536 35.904C124.664 34.848 124.792 33.808 124.92 32.784C125.016 31.888 125.096 30.992 125.16 30.096C125.256 29.2 125.336 28.432 125.4 27.792H121.224L119.304 34.704C118.6 34.8 117.768 34.912 116.808 35.04C115.848 35.136 114.952 35.232 114.12 35.328C113.096 35.456 112.088 35.584 111.096 35.712C112.376 31.456 113.64 27.264 114.888 23.136C115.4 21.408 115.928 19.6 116.472 17.712C117.048 15.824 117.608 13.952 118.152 12.096C118.728 10.208 119.272 8.4 119.784 6.672C120.296 4.944 120.744 3.36 121.128 1.92C123.304 1.76 125.512 1.568 127.752 1.344C130.024 1.12 132.232 0.815998 134.376 0.431997C134.28 1.456 134.168 2.736 134.04 4.272C133.944 5.776 133.848 7.424 133.752 9.216C133.656 11.008 133.56 12.88 133.464 14.832C133.368 16.784 133.272 18.704 133.176 20.592C133.016 25.008 132.84 29.696 132.648 34.656C131.688 34.816 130.728 34.944 129.768 35.04ZM122.376 22.992C122.504 22.992 122.728 22.992 123.048 22.992C123.4 22.96 123.752 22.944 124.104 22.944C124.488 22.912 124.84 22.896 125.16 22.896C125.48 22.864 125.704 22.832 125.832 22.8C125.832 22.608 125.848 22.288 125.88 21.84C125.944 21.36 125.992 20.832 126.024 20.256C126.088 19.648 126.152 18.992 126.216 18.288C126.28 17.584 126.344 16.896 126.408 16.224C126.536 14.592 126.696 12.832 126.888 10.944L127.176 6.768L126.456 6.816L125.352 10.944L122.376 22.992ZM152.886 25.68C152.118 27.44 151.254 28.976 150.294 30.288C149.366 31.568 148.374 32.656 147.318 33.552C146.294 34.416 145.254 35.056 144.198 35.472C143.142 35.888 142.118 36.096 141.126 36.096C140.134 36.096 139.222 35.872 138.39 35.424C137.59 34.976 136.886 34.304 136.278 33.408C135.67 32.512 135.174 31.408 134.79 30.096C134.438 28.784 134.262 27.248 134.262 25.488C134.262 22.48 134.678 19.52 135.51 16.608C136.342 13.664 137.51 11.024 139.014 8.688C140.518 6.352 142.294 4.48 144.342 3.072C146.422 1.632 148.71 0.912 151.206 0.912C151.974 0.912 152.71 1.072 153.414 1.392C154.118 1.712 154.726 2.16 155.238 2.736C155.75 3.312 156.15 4.016 156.438 4.848C156.758 5.68 156.918 6.608 156.918 7.632C156.918 7.824 156.918 8.032 156.918 8.256C156.918 8.448 156.902 8.656 156.87 8.88L150.582 10.56C150.198 9.76 149.75 9.36 149.238 9.36C148.726 9.36 148.182 9.664 147.606 10.272C147.062 10.848 146.518 11.616 145.974 12.576C145.43 13.504 144.902 14.56 144.39 15.744C143.878 16.896 143.43 18.064 143.046 19.248C142.662 20.432 142.342 21.568 142.086 22.656C141.862 23.712 141.75 24.576 141.75 25.248C141.75 26.272 141.878 26.992 142.134 27.408C142.422 27.824 142.79 28.032 143.238 28.032C143.59 28.032 143.99 27.904 144.438 27.648C144.886 27.36 145.302 27.008 145.686 26.592C146.07 26.144 146.422 25.648 146.742 25.104C147.062 24.56 147.286 24.016 147.414 23.472L152.886 25.68ZM152.121 36.048C153.081 31.568 153.977 27.216 154.809 22.992C155.129 21.168 155.465 19.28 155.817 17.328C156.169 15.376 156.489 13.44 156.777 11.52C157.097 9.6 157.369 7.744 157.593 5.952C157.849 4.128 158.041 2.48 158.169 1.008C158.905 1.072 159.737 1.136 160.665 1.2C161.593 1.232 162.457 1.28 163.257 1.344C164.217 1.408 165.177 1.44 166.137 1.44C166.105 1.568 166.057 1.808 165.993 2.16C165.929 2.512 165.849 2.944 165.753 3.456C165.657 3.936 165.545 4.48 165.417 5.088C165.321 5.696 165.209 6.304 165.081 6.912C164.825 8.32 164.537 9.904 164.217 11.664L164.505 11.616C164.825 11.104 165.273 10.4 165.849 9.504C166.457 8.576 167.081 7.6 167.721 6.576C168.361 5.552 168.985 4.576 169.593 3.648C170.201 2.688 170.713 1.872 171.129 1.2C172.729 1.072 174.329 0.927999 175.929 0.767999C177.529 0.607999 179.129 0.399999 180.729 0.143998C179.225 2.16 177.769 4.144 176.361 6.096C175.753 6.928 175.129 7.792 174.489 8.688C173.881 9.584 173.273 10.464 172.665 11.328C172.057 12.192 171.481 13.024 170.937 13.824C170.425 14.624 169.961 15.36 169.545 16.032C170.249 19.264 171.081 22.384 172.041 25.392C173.001 28.4 173.977 31.472 174.969 34.608C174.233 34.576 173.481 34.56 172.713 34.56C171.945 34.528 171.193 34.512 170.457 34.512C169.529 34.512 168.633 34.528 167.769 34.56C166.905 34.56 166.009 34.576 165.081 34.608C164.793 32.528 164.473 30.352 164.121 28.08C163.801 25.776 163.497 23.584 163.209 21.504L162.345 22.512C162.121 23.472 161.865 24.656 161.577 26.064C161.321 27.472 161.065 28.832 160.809 30.144C160.521 31.68 160.217 33.264 159.897 34.896L152.121 36.048ZM194.741 24.144C194.741 25.936 194.389 27.568 193.685 29.04C193.013 30.48 192.085 31.728 190.901 32.784C189.749 33.84 188.373 34.656 186.773 35.232C185.205 35.808 183.509 36.096 181.685 36.096C180.405 36.096 179.125 35.76 177.845 35.088C176.565 34.384 175.333 33.28 174.149 31.776L177.701 24.816C177.925 25.232 178.261 25.664 178.709 26.112C179.157 26.528 179.653 26.896 180.197 27.216C180.773 27.536 181.333 27.808 181.877 28.032C182.453 28.224 182.965 28.32 183.413 28.32C183.797 28.32 184.197 28.256 184.613 28.128C185.029 28 185.413 27.808 185.765 27.552C186.117 27.296 186.389 27.008 186.581 26.688C186.805 26.336 186.917 25.936 186.917 25.488C186.917 24.72 186.661 24.016 186.149 23.376C185.669 22.704 185.061 22.08 184.325 21.504C183.589 20.896 182.789 20.288 181.925 19.68C181.061 19.072 180.261 18.432 179.525 17.76C178.821 17.088 178.213 16.336 177.701 15.504C177.189 14.672 176.933 13.744 176.933 12.72C176.933 11.056 177.429 9.504 178.421 8.064C179.413 6.624 180.645 5.392 182.117 4.368C183.621 3.312 185.253 2.48 187.013 1.872C188.773 1.264 190.437 0.959999 192.005 0.959999C192.869 0.959999 193.685 1.072 194.453 1.296C195.221 1.488 195.877 1.824 196.421 2.304C196.997 2.752 197.445 3.328 197.765 4.032C198.117 4.736 198.293 5.616 198.293 6.672C198.293 7.12 198.245 7.568 198.149 8.016C198.085 8.464 198.021 8.944 197.957 9.456L190.997 11.472C191.061 11.216 191.109 10.96 191.141 10.704C191.205 10.448 191.237 10.192 191.237 9.936C191.237 8.976 191.061 8.288 190.709 7.872C190.389 7.424 189.957 7.2 189.413 7.2C189.157 7.2 188.837 7.296 188.453 7.488C188.101 7.68 187.733 7.936 187.349 8.256C186.997 8.544 186.693 8.896 186.437 9.312C186.181 9.728 186.053 10.176 186.053 10.656C186.053 11.424 186.261 12.064 186.677 12.576C187.125 13.088 187.669 13.568 188.309 14.016C188.949 14.464 189.637 14.928 190.373 15.408C191.141 15.856 191.845 16.448 192.485 17.184C193.125 17.92 193.653 18.848 194.069 19.968C194.517 21.056 194.741 22.448 194.741 24.144Z" fill="white"/>
</svg>
